M48
METRIC,LZ,000.000
;FILE_FORMAT=3:3
;TYPE=PLATED
;Layer: PTH_Through
;EasyEDA v6.5.57, 2026-06-26 17:44:01
;9e39d9fc19f14467b802b61eb5de34f4,176644b660504841b1e2546a1d1bb365,10
;Gerber Generator version 0.2
;Holesize 1 = 0.305 mm
T01C0.305
;Holesize 2 = 0.310 mm
T02C0.310
;Holesize 3 = 0.800 mm
T03C0.800
;Holesize 4 = 0.849 mm
T04C0.849
;Holesize 5 = 1.000 mm
T05C1.000
;Holesize 6 = 1.200 mm
T06C1.200
;Holesize 7 = 2.501 mm
T07C2.501
%
G05
G90
T01
X126065Y-056171
X157459Y-056918
X118538Y-051632
X096940Y-060400
T02
X109220Y-043688
T03
X137414Y-069850
X137414Y-072390
T04
X058420Y-053848
X055880Y-053848
X053340Y-053848
X050800Y-053848
X048260Y-053848
X045720Y-053848
X043180Y-053848
X040640Y-053848
X038100Y-053848
X035560Y-053848
X080264Y-053848
X077724Y-053848
X075184Y-053848
X072644Y-053848
X070104Y-053848
X067564Y-053848
X065024Y-053848
X062484Y-053848
X067564Y-102108
X070104Y-102108
X072644Y-102108
X075184Y-102108
X077724Y-102108
X080264Y-102108
X044704Y-102108
X047244Y-102108
X049784Y-102108
X052324Y-102108
X054864Y-102108
X057404Y-102108
X059944Y-102108
X062484Y-102108
T05
X056265Y-006852
X053725Y-006852
X051185Y-006852
X048645Y-006852
X046105Y-006852
X043565Y-006852
X041025Y-006852
X038485Y-006852
X035945Y-006852
X033405Y-006852
X030865Y-006852
X028325Y-006852
X025785Y-006852
X023245Y-006852
X020705Y-006852
X018165Y-006852
T06
X020825Y-116205G85X020831Y-116205
X020825Y-121206G85X020831Y-121206
X020825Y-111206G85X020831Y-111206
T07
X012602Y-006852G85X012728Y-006852
X012602Y-037852G85X012728Y-037852
X087602Y-006852G85X087728Y-006852
X087602Y-037852G85X087728Y-037852
M30
