G04 Layer: BottomSolderMaskLayer*
G04 EasyEDA v6.5.57, 2026-06-26 17:44:01*
G04 9e39d9fc19f14467b802b61eb5de34f4,176644b660504841b1e2546a1d1bb365,10*
G04 Gerber Generator version 0.2*
G04 Scale: 100 percent, Rotated: No, Reflected: No *
G04 Dimensions in millimeters *
G04 leading zeros omitted , absolute positions ,4 integer and 5 decimal *
%FSLAX45Y45*%
%MOMM*%

%AMMACRO1*4,1,8,-0.8212,-0.8509,-0.8509,-0.8209,-0.8509,0.8212,-0.8212,0.8509,0.8209,0.8509,0.8509,0.8212,0.8509,-0.8209,0.8209,-0.8509,-0.8212,-0.8509,0*%
%AMMACRO2*4,1,8,-0.7323,-0.9041,-0.762,-0.8741,-0.762,0.8744,-0.7323,0.9041,0.732,0.9041,0.762,0.8744,0.762,-0.8741,0.732,-0.9041,-0.7323,-0.9041,0*%
%AMMACRO3*4,1,8,-0.7323,-0.9042,-0.762,-0.8743,-0.762,0.8745,-0.7323,0.9042,0.732,0.9042,0.762,0.8745,0.762,-0.8743,0.732,-0.9042,-0.7323,-0.9042,0*%
%AMMACRO4*4,1,8,-0.7322,-0.9042,-0.7619,-0.8743,-0.7619,0.8745,-0.7322,0.9042,0.7319,0.9042,0.7619,0.8745,0.7619,-0.8743,0.7319,-0.9042,-0.7322,-0.9042,0*%
%AMMACRO5*4,1,8,-0.7322,-0.9041,-0.7619,-0.8741,-0.7619,0.8744,-0.7322,0.9041,0.7319,0.9041,0.7619,0.8744,0.7619,-0.8741,0.7319,-0.9041,-0.7322,-0.9041,0*%
%ADD10C,1.6240*%
%ADD11C,2.7032*%
%ADD12C,1.7016*%
%ADD13MACRO1*%
%ADD14C,3.3016*%
%ADD15MACRO2*%
%ADD16C,0.0165*%
%ADD17MACRO3*%
%ADD18MACRO4*%
%ADD19MACRO5*%

%LPD*%
D10*
G01*
X13741400Y-6985000D03*
G01*
X13741400Y-7239000D03*
D11*
G01*
X2082800Y-11620500D03*
G01*
X2082800Y-12120499D03*
G01*
X2082800Y-11120501D03*
D12*
G01*
X5626506Y-685190D03*
G01*
X5372506Y-685190D03*
G01*
X5118506Y-685190D03*
G01*
X4864506Y-685190D03*
G01*
X4610506Y-685190D03*
G01*
X4356506Y-685190D03*
G01*
X4102506Y-685190D03*
G01*
X3848506Y-685190D03*
G01*
X3594506Y-685190D03*
G01*
X3340506Y-685190D03*
G01*
X3086506Y-685190D03*
G01*
X2832506Y-685190D03*
G01*
X2578506Y-685190D03*
G01*
X2324506Y-685190D03*
G01*
X2070506Y-685190D03*
D13*
G01*
X1816506Y-685190D03*
D14*
G01*
X1266494Y-685190D03*
G01*
X1266494Y-3785209D03*
G01*
X8766505Y-685190D03*
G01*
X8766505Y-3785209D03*
D15*
G01*
X5842000Y-5384812D03*
D17*
G01*
X5588000Y-5384825D03*
G01*
X5334000Y-5384825D03*
G01*
X5080000Y-5384825D03*
G01*
X4826000Y-5384825D03*
G01*
X4572000Y-5384825D03*
G01*
X4318000Y-5384825D03*
G01*
X4064000Y-5384825D03*
G01*
X3810000Y-5384825D03*
G01*
X3556000Y-5384825D03*
D18*
G01*
X8026387Y-5384825D03*
G01*
X7772387Y-5384825D03*
G01*
X7518387Y-5384825D03*
D19*
G01*
X7264387Y-5384812D03*
G01*
X7010387Y-5384812D03*
D15*
G01*
X6756400Y-5384812D03*
G01*
X6502400Y-5384812D03*
G01*
X6248400Y-5384812D03*
D17*
G01*
X6756400Y-10210800D03*
G01*
X7010400Y-10210800D03*
G01*
X7264400Y-10210800D03*
G01*
X7518400Y-10210800D03*
G01*
X7772400Y-10210800D03*
G01*
X8026400Y-10210800D03*
G01*
X4470400Y-10210800D03*
G01*
X4724400Y-10210800D03*
G01*
X4978400Y-10210800D03*
G01*
X5232400Y-10210800D03*
G01*
X5486400Y-10210800D03*
G01*
X5740400Y-10210800D03*
G01*
X5994400Y-10210800D03*
G01*
X6248400Y-10210800D03*
M02*
