G04 Layer: TopLayer*
G04 EasyEDA v6.5.57, 2026-06-26 17:44:01*
G04 9e39d9fc19f14467b802b61eb5de34f4,176644b660504841b1e2546a1d1bb365,10*
G04 Gerber Generator version 0.2*
G04 Scale: 100 percent, Rotated: No, Reflected: No *
G04 Dimensions in millimeters *
G04 leading zeros omitted , absolute positions ,4 integer and 5 decimal *
%FSLAX45Y45*%
%MOMM*%

%ADD10C,0.2032*%
%ADD11C,0.2540*%
%ADD12R,4.0800X12.0000*%
%ADD13R,3.2004X2.4994*%
%ADD14R,2.1000X1.4000*%
%ADD15R,0.0183X1.4000*%
%ADD16C,1.5240*%
%ADD17C,2.5000*%
%ADD18C,1.6000*%
%ADD19R,1.6000X1.6000*%
%ADD20C,3.2000*%
%ADD21R,1.4224X1.7069*%
%ADD22C,0.6200*%
%ADD23C,0.6096*%

%LPD*%
D10*
X9399270Y-2284476D02*
G01*
X9399270Y-2478278D01*
X9334500Y-2284476D02*
G01*
X9463786Y-2284476D01*
X9524745Y-2284476D02*
G01*
X9524745Y-2478278D01*
X9524745Y-2284476D02*
G01*
X9644888Y-2284476D01*
X9524745Y-2376678D02*
G01*
X9598659Y-2376678D01*
X9524745Y-2478278D02*
G01*
X9644888Y-2478278D01*
X9705847Y-2284476D02*
G01*
X9835134Y-2478278D01*
X9835134Y-2284476D02*
G01*
X9705847Y-2478278D01*
X9960609Y-2284476D02*
G01*
X9960609Y-2478278D01*
X9896093Y-2284476D02*
G01*
X10025379Y-2284476D01*
X9627870Y-2246376D02*
G01*
X9627870Y-2440178D01*
X9563100Y-2246376D02*
G01*
X9692386Y-2246376D01*
X9753345Y-2246376D02*
G01*
X9753345Y-2440178D01*
X9753345Y-2246376D02*
G01*
X9873488Y-2246376D01*
X9753345Y-2338578D02*
G01*
X9827259Y-2338578D01*
X9753345Y-2440178D02*
G01*
X9873488Y-2440178D01*
X9934447Y-2246376D02*
G01*
X10063734Y-2440178D01*
X10063734Y-2246376D02*
G01*
X9934447Y-2440178D01*
X10189209Y-2246376D02*
G01*
X10189209Y-2440178D01*
X10124693Y-2246376D02*
G01*
X10253979Y-2246376D01*
D11*
X4726914Y-5384822D02*
G01*
X4726914Y-2833596D01*
X2578506Y-685187D01*
X4826000Y-5384822D02*
G01*
X4726914Y-5384822D01*
X5080000Y-5384822D02*
G01*
X5080000Y-2678681D01*
X3086506Y-685187D01*
X6756400Y-5384797D02*
G01*
X6756400Y-3085081D01*
X4356506Y-685187D01*
X7010400Y-5384797D02*
G01*
X7010400Y-3085081D01*
X4610506Y-685187D01*
X7264400Y-5384797D02*
G01*
X7264400Y-3085081D01*
X4864506Y-685187D01*
X7518400Y-5384822D02*
G01*
X7518400Y-3085081D01*
X5118506Y-685187D01*
X9443593Y-5791197D02*
G01*
X9443593Y-6419161D01*
X9443593Y-6419161D02*
G01*
X9668179Y-6419161D01*
X9693986Y-6393355D01*
X9693986Y-6040041D01*
X2324506Y-685187D02*
G01*
X2324506Y-11378791D01*
X2082800Y-11620497D01*
X14640890Y-9071404D02*
G01*
X14640890Y-8138487D01*
X13741400Y-7238997D01*
X15692120Y-2438397D02*
G01*
X15692120Y-2591330D01*
X2082800Y-12120496D02*
G01*
X1816506Y-11854202D01*
X1816506Y-685187D01*
X15692120Y-2591330D02*
G01*
X15692120Y-5288277D01*
X13741400Y-7238997D01*
X12095606Y-5791197D02*
G01*
X12095606Y-5163233D01*
X12095606Y-5163233D02*
G01*
X11853773Y-5163233D01*
X16489679Y-2438397D02*
G01*
X16489679Y-2591330D01*
X16489679Y-2591330D02*
G01*
X15745866Y-3335144D01*
X15745866Y-5691781D01*
X12606477Y-5617131D02*
G01*
X12606477Y-8529927D01*
X13597940Y-9521390D01*
X13730909Y-9521390D02*
G01*
X13597940Y-9521390D01*
D12*
G01*
X12095606Y-5791200D03*
G01*
X9443593Y-5791200D03*
D13*
G01*
X15692120Y-2438400D03*
G01*
X16489679Y-2438400D03*
D14*
G01*
X13730909Y-9071406D03*
G01*
X14640890Y-9071406D03*
G01*
X13730909Y-9521393D03*
G01*
X14640890Y-9521393D03*
D11*
G75*
G01*
X8077200Y-2501900D02*
G03*
X4889500Y-5664200I-1592250J-1582763D01*
D16*
G01*
X13741400Y-6985000D03*
G01*
X13741400Y-7239000D03*
D17*
G01*
X2082800Y-11620500D03*
G01*
X2082800Y-12120499D03*
G01*
X2082800Y-11120501D03*
D18*
G01*
X5626506Y-685190D03*
G01*
X5372506Y-685190D03*
G01*
X5118506Y-685190D03*
G01*
X4864506Y-685190D03*
G01*
X4610506Y-685190D03*
G01*
X4356506Y-685190D03*
G01*
X4102506Y-685190D03*
G01*
X3848506Y-685190D03*
G01*
X3594506Y-685190D03*
G01*
X3340506Y-685190D03*
G01*
X3086506Y-685190D03*
G01*
X2832506Y-685190D03*
G01*
X2578506Y-685190D03*
G01*
X2324506Y-685190D03*
G01*
X2070506Y-685190D03*
D19*
G01*
X1816506Y-685190D03*
D20*
G01*
X1266494Y-685190D03*
G01*
X1266494Y-3785209D03*
G01*
X8766505Y-685190D03*
G01*
X8766505Y-3785209D03*
D21*
G01*
X5842000Y-5384800D03*
G01*
X5588000Y-5384825D03*
G01*
X5334000Y-5384825D03*
G01*
X5080000Y-5384825D03*
G01*
X4826000Y-5384825D03*
G01*
X4572000Y-5384825D03*
G01*
X4318000Y-5384825D03*
G01*
X4064000Y-5384825D03*
G01*
X3810000Y-5384825D03*
G01*
X3556000Y-5384825D03*
G01*
X8026400Y-5384825D03*
G01*
X7772400Y-5384825D03*
G01*
X7518400Y-5384825D03*
G01*
X7264400Y-5384800D03*
G01*
X7010400Y-5384800D03*
G01*
X6756400Y-5384800D03*
G01*
X6502400Y-5384800D03*
G01*
X6248400Y-5384800D03*
G01*
X6756400Y-10210800D03*
G01*
X7010400Y-10210800D03*
G01*
X7264400Y-10210800D03*
G01*
X7518400Y-10210800D03*
G01*
X7772400Y-10210800D03*
G01*
X8026400Y-10210800D03*
G01*
X4470400Y-10210800D03*
G01*
X4724400Y-10210800D03*
G01*
X4978400Y-10210800D03*
G01*
X5232400Y-10210800D03*
G01*
X5486400Y-10210800D03*
G01*
X5740400Y-10210800D03*
G01*
X5994400Y-10210800D03*
G01*
X6248400Y-10210800D03*
D22*
G01*
X10922000Y-4368800D03*
D23*
G01*
X12606477Y-5617131D03*
G01*
X15745866Y-5691781D03*
G01*
X11853773Y-5163233D03*
G01*
X9693986Y-6040041D03*
M02*
